<svg width="30" height="21" viewBox="0 0 30 21" fill="none" xmlns="http://www.w3.org/2000/svg">
<path d="M15 0C21.8182 0 27.6409 4.24091 30 10.2273C27.6409 16.2136 21.8182 20.4545 15 20.4545C8.18182 20.4545 2.35909 16.2136 0 10.2273C2.35909 4.24091 8.18182 0 15 0ZM15 17.0455C18.7636 17.0455 21.8182 13.9909 21.8182 10.2273C21.8182 6.46364 18.7636 3.40909 15 3.40909C11.2364 3.40909 8.18182 6.46364 8.18182 10.2273C8.18182 13.9909 11.2364 17.0455 15 17.0455ZM15 6.13636C17.2636 6.13636 19.0909 7.96364 19.0909 10.2273C19.0909 12.4909 17.2636 14.3182 15 14.3182C12.7364 14.3182 10.9091 12.4909 10.9091 10.2273C10.9091 7.96364 12.7364 6.13636 15 6.13636Z" fill="#868686"/>
</svg>
