<svg width="30" height="26" viewBox="0 0 30 26" fill="none" xmlns="http://www.w3.org/2000/svg">
<path d="M15.0068 5.45703C18.7722 5.45703 21.8281 8.51296 21.8281 12.2783C21.8281 13.1651 21.6507 13.9973 21.337 14.7749L25.3206 18.7585C27.3806 17.0396 29.0041 14.8158 30 12.2783C27.6398 6.28922 21.8145 2.04638 14.9932 2.04638C13.0832 2.04638 11.2551 2.38745 9.56344 3.00136L12.5102 5.94816C13.2879 5.63438 14.1201 5.45703 15.0068 5.45703ZM1.36426 1.73261L4.47476 4.84311L5.10232 5.47067C2.83765 7.23056 1.06412 9.57708 0 12.2783C2.36016 18.2674 8.18554 22.5102 15.0068 22.5102C17.1214 22.5102 19.1405 22.101 20.9823 21.3643L21.5553 21.9372L25.5525 25.9209L27.2851 24.1883L3.09686 0L1.36426 1.73261ZM8.9086 9.27694L11.0232 11.3915C10.955 11.678 10.9141 11.9782 10.9141 12.2783C10.9141 14.543 12.7422 16.3711 15.0068 16.3711C15.307 16.3711 15.6071 16.3302 15.8936 16.2619L18.0082 18.3765C17.0941 18.8267 16.0846 19.0996 15.0068 19.0996C11.2415 19.0996 8.18554 16.0437 8.18554 12.2783C8.18554 11.2005 8.45839 10.191 8.9086 9.27694ZM14.7885 8.21282L19.0859 12.5102L19.1132 12.292C19.1132 10.0273 17.2851 8.19918 15.0205 8.19918L14.7885 8.21282Z" fill="#868686"/>
</svg>
